<?xml version="1.0"?><svg xmlns="http://www.w3.org/2000/svg"  viewBox="0 0 128 128" width="64px" height="64px">    <path d="M107.6,82.4c-0.1,0-0.2-0.1-0.3-0.1c0,0,0,0,0,0c-1.1-0.4-3.3-0.8-4.9-1.1c-1.1-0.2-2-1-2.4-2L87.4,39.5 C83.8,28,73,20.7,61.3,21.2l-1.1-6.9c-0.3-1.6-1.7-2.9-3.3-2.7c-1.7,0.2-2.9,1.8-2.7,3.4l1.1,7.1C44,25.3,36,35.5,36,47.6l0.1,41.6 c0,1.2-0.7,2.2-1.7,2.7c-0.1,0.1-0.2,0.1-0.3,0.1c-2.2,1.1-4.4,2.4-5.7,4.1c0,0.1-0.1,0.1-0.1,0.2c-0.1,0.2-0.2,0.3-0.3,0.5 c-0.1,0.1-0.1,0.2-0.2,0.3c-0.1,0.1-0.1,0.2-0.2,0.3c-0.1,0.1-0.1,0.3-0.2,0.4c0,0.1-0.1,0.2-0.1,0.2c-0.1,0.2-0.1,0.3-0.1,0.5 c0,0.1,0,0.1,0,0.2c0,0.2,0,0.4-0.1,0.5c0,0.1,0,0.1,0,0.2c0,0.3,0,0.5,0.1,0.8c0.4,2.3,2.1,5.1,11.9,6.1c2.2,0.2,4.7,0.3,7.2,0.3 c2.8,0,5.7-0.1,8.5-0.3c0.3,0,0.6,0,1-0.1c0.2,0,0.5,0,0.7-0.1c3.9-0.3,8-0.7,12.3-1.4c1.1-0.2,2.1-0.3,2.7-0.4 c0.4-0.1,0.9-0.1,1.5-0.2c5.6-0.9,11-2,15.9-3.3c4.4-1.1,9-2.5,12.9-4.1c7.7-3.1,11-6.3,10.4-9.8C111.8,85.5,111,83.7,107.6,82.4z M90.2,80.6c-1.8,0-3.7,0.1-5.5,0.3c-4.5,0.3-9.3,0.8-14.2,1.5c-1.1,0.2-2,0.3-2.6,0.4c-4.1,0.6-8.1,1.4-11.8,2.2c0,0,0,0,0,0 c-0.5,0-0.9,0.1-1.3,0.3c-3.1,0.7-6.1,1.5-8.8,2.3c-1.9,0.6-3.8-0.9-3.8-2.9L42,47.6c0-10.1,7.2-18.6,17.2-20.1 c10-1.6,19.4,4.3,22.5,13.9L93,76.7C93.6,78.6,92.2,80.6,90.2,80.6z"/></svg>