<svg xmlns="http://www.w3.org/2000/svg"  viewBox="0 0 48 48" width="48px" height="48px"><path fill="#ffe082" d="M32.598,32.264c-0.152-0.041-7.158-1.508-7.158-1.508V24.6c0-1.436-1.164-2.6-2.6-2.6	c-1.436,0-2.6,1.164-2.6,2.6v9.667c-1.074,1.456-3.12,4.396-3.12,5.675c0,2.219,2.349,5.026,4.039,6.758	c0.996,1.02,2.432,1.479,3.837,1.234l6.206-1.075c1.679-0.291,3.082-1.439,3.702-3.026c0.675-1.725,1.488-3.867,1.783-4.891	C37.522,36.033,35.558,33.054,32.598,32.264z"/><path fill="none" stroke="#18193f" stroke-linecap="round" stroke-linejoin="round" stroke-miterlimit="10" stroke-width="3" d="M21.5,14.277V7.5c0-1.105-0.895-2-2-2h-10c-1.105,0-2,0.895-2,2v10c0,1.105,0.895,2,2,2h2.862"/><path fill="none" stroke="#18193f" stroke-linecap="round" stroke-linejoin="round" stroke-miterlimit="10" stroke-width="3" d="M16.85,41.688c0.183,0.198,0.362,0.385,0.534,0.562c0.958,0.981,2.338,1.422,3.689,1.187l5.967-1.034	c1.614-0.28,2.963-1.384,3.56-2.91c0.649-1.659,1.431-3.718,1.714-4.703c0.803-2.797-1.085-5.661-3.931-6.421	c-0.06-0.016-1.228-0.263-2.585-0.548"/><path fill="none" stroke="#18193f" stroke-linecap="round" stroke-linejoin="round" stroke-miterlimit="10" stroke-width="3" d="M21.5,26.919V21c0-1.381-1.119-2.5-2.5-2.5s-2.5,1.119-2.5,2.5v9.295c-1.033,1.4-3,4.227-3,5.457c0,0.665,0.22,1.385,0.571,2.112"/><path fill="none" stroke="#18193f" stroke-linecap="round" stroke-linejoin="round" stroke-miterlimit="10" stroke-width="3" d="M28.5,19.5h10c1.105,0,2-0.895,2-2v-10c0-1.105-0.895-2-2-2h-10c-1.105,0-2,0.895-2,2v10C26.5,18.605,27.395,19.5,28.5,19.5z"/><polyline fill="none" stroke="#18193f" stroke-linecap="round" stroke-linejoin="round" stroke-miterlimit="10" stroke-width="3" points="11.5,12.5 13.5,14.5 17.5,10.5"/></svg>