<svg xmlns="http://www.w3.org/2000/svg"  viewBox="0 0 50 50" width="50px" height="50px"><path d="M 22.34375 0 C 22.34375 0 21.890625 0.0117188 21.375 0.1875 C 20.859375 0.363281 20.1875 0.703125 19.53125 1.34375 C 18.820313 2.039063 17.4375 3.328125 16.125 4.59375 C 14.671875 3.589844 12.890625 3 11 3 C 6.042969 3 2 7.039063 2 12 C 2 15.929688 4.53125 19.28125 8.0625 20.5 C 7.40625 24.269531 7 29.175781 7 35.53125 C 7 36.949219 8.175781 38 9.53125 38 C 10.894531 38 12.070313 36.867188 12.0625 35.4375 C 12.058594 34.761719 12.046875 27.015625 14.125 20.5 C 14.132813 20.476563 14.148438 20.460938 14.15625 20.4375 C 16.957031 19.386719 19.074219 16.964844 19.75 14 L 21.3125 14 L 20.6875 16.46875 C 17.183594 19.976563 15 25.1875 15 31 C 15 41.390625 22.066406 50 31 50 C 39.933594 50 47 41.390625 47 31 C 47 25.21875 44.820313 20.039063 41.34375 16.53125 L 39.3125 7 L 39.5 7 C 41.421875 7 43 5.421875 43 3.5 C 43 1.578125 41.421875 0 39.5 0 Z M 22.34375 2 L 39.5 2 C 40.339844 2 41 2.660156 41 3.5 C 41 4.339844 40.339844 5 39.5 5 L 38.09375 5 C 37.792969 5.003906 37.507813 5.140625 37.316406 5.378906 C 37.128906 5.613281 37.058594 5.921875 37.125 6.21875 L 39.1875 16 L 22.875 16 L 23.5625 13.25 C 23.640625 12.949219 23.574219 12.632813 23.382813 12.386719 C 23.195313 12.144531 22.902344 12 22.59375 12 L 18 12 C 17.871094 11.996094 17.746094 12.019531 17.625 12.0625 C 17.625 12.0625 16.640625 12.496094 15.5625 13.65625 C 14.484375 14.816406 13.21875 16.742188 12.21875 19.875 C 10.003906 26.828125 10.058594 34.769531 10.0625 35.4375 C 10.0625 35.769531 9.785156 36 9.53125 36 C 9.269531 36 9 35.730469 9 35.53125 C 9 28.59375 9.5 23.417969 10.25 19.6875 C 11.515625 13.394531 14.589844 8.988281 15.75 7.78125 C 17.066406 6.410156 19.8125 3.878906 20.9375 2.78125 C 21.375 2.355469 21.765625 2.183594 22.03125 2.09375 C 22.296875 2.003906 22.34375 2 22.34375 2 Z M 11 5 C 12.34375 5 13.589844 5.375 14.65625 6.03125 C 14.558594 6.132813 14.402344 6.28125 14.3125 6.375 C 12.796875 7.949219 9.894531 12.253906 8.46875 18.53125 C 5.855469 17.515625 4 14.980469 4 12 C 4 8.121094 7.121094 5 11 5 Z M 17.46875 14.59375 C 17.023438 15.699219 16.316406 16.664063 15.40625 17.40625 C 15.972656 16.339844 16.546875 15.554688 17.03125 15.03125 C 17.199219 14.847656 17.335938 14.71875 17.46875 14.59375 Z M 22 18 L 25.8125 18 C 24.910156 20.707031 24.304688 24.167969 24.09375 28 L 17.25 28 C 17.839844 23.996094 19.5625 20.492188 22 18 Z M 27.9375 18 L 34.0625 18 C 34.988281 20.511719 35.675781 24.011719 35.90625 28 L 26.09375 28 C 26.324219 24.011719 27.011719 20.511719 27.9375 18 Z M 36.1875 18 L 39.96875 18 C 42.410156 20.492188 44.152344 23.992188 44.75 28 L 37.90625 28 C 37.695313 24.167969 37.089844 20.707031 36.1875 18 Z M 17.0625 30 L 24 30 C 23.992188 30.335938 24 30.660156 24 31 C 24 33.484375 24.167969 35.832031 24.46875 38 L 18.25 38 C 17.457031 35.871094 17 33.507813 17 31 C 17 30.660156 17.046875 30.335938 17.0625 30 Z M 26 30 L 36 30 C 36.007813 30.332031 36 30.664063 36 31 C 36 33.492188 35.8125 35.863281 35.5 38 L 26.5 38 C 26.1875 35.863281 26 33.492188 26 31 C 26 30.664063 25.992188 30.332031 26 30 Z M 38 30 L 44.9375 30 C 44.953125 30.332031 45 30.664063 45 31 C 45 33.507813 44.542969 35.871094 43.75 38 L 37.53125 38 C 37.832031 35.832031 38 33.484375 38 31 C 38 30.660156 38.007813 30.335938 38 30 Z M 19.125 40 L 24.8125 40 C 25.089844 41.46875 25.410156 42.824219 25.8125 44.03125 C 26.238281 45.308594 26.71875 46.449219 27.28125 47.375 C 23.878906 46.230469 20.96875 43.578125 19.125 40 Z M 26.84375 40 L 35.15625 40 C 34.90625 41.25 34.617188 42.398438 34.28125 43.40625 C 33.761719 44.960938 33.171875 46.195313 32.5625 46.96875 C 31.953125 47.742188 31.421875 48 31 48 C 30.578125 48 30.046875 47.742188 29.4375 46.96875 C 28.828125 46.195313 28.238281 44.960938 27.71875 43.40625 C 27.382813 42.398438 27.09375 41.25 26.84375 40 Z M 37.1875 40 L 42.875 40 C 41.03125 43.578125 38.121094 46.230469 34.71875 47.375 C 35.28125 46.449219 35.761719 45.308594 36.1875 44.03125 C 36.589844 42.824219 36.910156 41.46875 37.1875 40 Z"/></svg>