<svg xmlns="http://www.w3.org/2000/svg"  viewBox="0 0 50 50" width="50px" height="50px"><path d="M 38.910156 1.0039062 C 37.870948 1.0039332 36.830896 1.3976199 36.044922 2.1835938 L 35.181641 3.046875 C 34.101057 4.1292807 33.78287 5.6844576 34.189453 7.0644531 C 30.909358 5.1199247 27.084839 4 23 4 C 10.86158 4 1 13.86158 1 26 C 1 38.13842 10.86158 48 23 48 C 35.13842 48 45 38.13842 45 26 C 45 22.242843 44.053354 18.705338 42.388672 15.609375 C 43.887061 16.29936 45.726276 16.045056 46.955078 14.818359 L 47.818359 13.955078 C 49.389332 12.381456 49.390307 9.7965569 47.818359 8.2246094 L 41.775391 2.1816406 C 40.98858 1.3961544 39.949364 1.0038794 38.910156 1.0039062 z M 38.910156 2.9960938 C 39.435448 2.9961206 39.962092 3.1971425 40.363281 3.5976562 L 46.404297 9.6386719 C 47.204349 10.438724 47.203418 11.738637 46.402344 12.541016 L 45.541016 13.402344 C 44.738637 14.203371 43.440049 14.203721 42.638672 13.402344 L 36.597656 7.3613281 C 35.798063 6.5617347 35.798007 5.2634257 36.597656 4.4609375 L 36.597656 4.4589844 L 37.460938 3.5976562 C 37.860964 3.197627 38.384864 2.9960667 38.910156 2.9960938 z M 23 6 C 34.05754 6 43 14.94246 43 26 C 43 37.05754 34.05754 46 23 46 C 11.94246 46 3 37.05754 3 26 C 3 14.94246 11.94246 6 23 6 z M 23 10 C 14.175289 10 7 17.175289 7 26 C 7 34.824711 14.175289 42 23 42 C 31.824711 42 39 34.824711 39 26 C 39 17.175289 31.824711 10 23 10 z M 23 12 C 30.743831 12 37 18.256169 37 26 C 37 33.743831 30.743831 40 23 40 C 15.256169 40 9 33.743831 9 26 C 9 18.256169 15.256169 12 23 12 z M 23 18.941406 C 19.145851 18.941406 16 22.087258 16 25.941406 C 16 29.795555 19.145851 32.941406 23 32.941406 C 26.723488 32.941406 29.777109 30.00251 29.980469 26.328125 A 3 3 0 0 0 30 26 A 3 3 0 0 0 29.998047 25.964844 C 29.998074 25.956917 30 25.949339 30 25.941406 C 30 25.893881 29.99314 25.848087 29.992188 25.800781 C 29.992095 25.796195 29.992289 25.791693 29.992188 25.787109 A 3 3 0 0 0 29.992188 25.783203 C 29.906607 22.002339 26.8007 18.941406 23 18.941406 z M 23 20.941406 C 24.668001 20.941406 26.126194 21.756484 27.033203 23.001953 A 3 3 0 0 0 27 23 A 3 3 0 0 0 24 26 A 3 3 0 0 0 26.9375 28.996094 C 26.024916 30.173002 24.613757 30.941406 23 30.941406 C 20.226732 30.941406 18 28.714675 18 25.941406 C 18 23.168138 20.226732 20.941406 23 20.941406 z"/></svg>