<svg xmlns="http://www.w3.org/2000/svg"  viewBox="0 0 50 50" width="50px" height="50px"><path d="M 30.238281 5 C 27.489218 5 25.240234 7.2503431 25.240234 9.9980469 C 25.240234 12.575435 27.216277 14.717048 29.728516 14.974609 C 29.895998 14.99178 30.066465 15 30.238281 15 C 32.991122 15 35.240234 12.746959 35.240234 9.9980469 C 35.240234 7.2506451 32.991122 5 30.238281 5 z M 30.238281 7 C 31.911441 7 33.240234 8.3314486 33.240234 9.9980469 C 33.240234 11.667134 31.911441 13 30.238281 13 C 28.571344 13 27.240234 11.666833 27.240234 9.9980469 C 27.240234 9.7897598 27.261128 9.5865098 27.300781 9.390625 C 27.578354 8.0194313 28.779711 7 30.238281 7 z M 16.798828 15 A 1.0001 1.0001 0 0 0 16.5625 15.029297 C 16.401055 15.034697 16.24462 15.031999 16.056641 15.074219 A 1.0001 1.0001 0 0 0 16.054688 15.074219 C 15.547073 15.188926 15.10591 15.437482 14.746094 15.755859 A 1.0001 1.0001 0 0 0 14.535156 15.923828 L 8.8789062 21.878906 A 1.0001 1.0001 0 0 0 8.6171875 22.414062 C 8.0586724 23.263011 7.8169167 24.33672 8.3203125 25.355469 A 1.0001 1.0001 0 0 0 8.3203125 25.357422 C 8.8154684 26.355424 9.8219588 26.977044 10.923828 27 C 11.773131 27.01745 12.478214 26.627581 13.017578 26.109375 A 1.0001 1.0001 0 0 0 13.320312 25.890625 L 17.853516 21.066406 L 20.792969 21.503906 L 18.361328 29.326172 A 1.0001 1.0001 0 0 0 18.320312 29.558594 C 18.080219 30.243705 17.968502 30.984897 18.042969 31.742188 A 1.0001 1.0001 0 0 0 17.951172 31.867188 L 14.693359 37 L 7.5 37 C 5.5788117 37 4 38.578812 4 40.5 C 4 42.421188 5.5788117 44 7.5 44 L 15.931641 44 C 16.134179 44 16.334667 43.987007 16.533203 43.962891 C 17.922959 43.794076 19.191826 43.047219 20.011719 41.890625 L 24.494141 36.001953 L 33.076172 36.007812 L 41.494141 37.849609 L 41.394531 37.822266 C 41.757299 37.942269 42.129177 38.001953 42.498047 38.001953 C 43.967205 38.001953 45.333514 37.063643 45.820312 35.607422 C 46.428365 33.784659 45.428584 31.786464 43.605469 31.179688 A 1.0001 1.0001 0 0 0 43.507812 31.152344 L 34.509766 29.152344 L 34.607422 29.179688 C 34.294506 29.075391 34.062894 29.058809 33.839844 29.035156 C 33.728319 29.02333 33.626955 29.015308 33.548828 29.009766 C 33.470701 29.004224 33.510107 29 33.353516 29 L 28.361328 29 L 29.96875 23.871094 L 34.806641 26.609375 A 1.0001 1.0001 0 0 0 34.988281 26.689453 C 34.988281 26.689453 34.990234 26.689453 34.990234 26.689453 C 35.942743 27.150506 37.114346 27.101562 38.035156 26.447266 L 43.738281 22.388672 C 45.077699 21.434715 45.397929 19.545348 44.443359 18.205078 C 43.489398 16.865662 41.600035 16.54543 40.259766 17.5 L 35.908203 20.597656 L 29.533203 16.728516 C 29.203127 16.478558 28.827009 16.26786 28.398438 16.082031 A 1.0001 1.0001 0 0 0 28.332031 16.056641 L 25.486328 15.056641 A 1.0001 1.0001 0 0 0 25.154297 15 L 16.798828 15 z M 17.138672 16.939453 L 16.990234 17 L 24.984375 17 L 27.609375 17.921875 C 27.853407 18.028222 28.025107 18.123578 28.169922 18.214844 C 28.170922 18.215474 28.172832 18.216167 28.173828 18.216797 A 1.0001 1.0001 0 0 0 28.355469 18.355469 L 28.357422 18.357422 C 28.429305 18.416482 28.512923 18.475488 28.560547 18.533203 C 28.716856 18.722635 28.833674 18.980386 28.953125 19.507812 A 1.0001 1.0001 0 0 0 28.953125 19.509766 C 29.030275 19.848844 29.009053 20.182115 28.908203 20.517578 A 1.0001 1.0001 0 0 0 28.990234 21.291016 L 28.789062 20.947266 L 26.044922 29.701172 A 1.0001 1.0001 0 0 0 27 31 L 33.353516 31 C 33.217424 31 33.350213 30.999798 33.408203 31.003906 C 33.466203 31.008006 33.545931 31.014637 33.628906 31.023438 C 33.794856 31.041038 34.010479 31.089425 33.976562 31.078125 A 1.0001 1.0001 0 0 0 34.074219 31.105469 L 42.984375 33.085938 C 43.772815 33.355854 44.186378 34.181706 43.921875 34.974609 C 43.708673 35.612388 43.122888 36.001953 42.498047 36.001953 C 42.342917 36.001953 42.184717 35.975875 42.021484 35.921875 A 1.0001 1.0001 0 0 0 41.921875 35.894531 L 33.398438 34.03125 A 1.0001 1.0001 0 0 0 33.300781 34.013672 A 1.0001 1.0001 0 0 0 33.199219 34.007812 A 1.0001 1.0001 0 0 0 33.185547 34.007812 L 24.285156 34.001953 L 24.28125 34.001953 A 1.0001 1.0001 0 0 0 23.888672 33.976562 A 1.0001 1.0001 0 0 0 23.769531 34.001953 L 22.263672 34 A 1.0001 1.0001 0 0 0 22.261719 34 C 22.015052 34 21.95646 33.980832 22.052734 34.013672 A 1.0001 1.0001 0 0 0 22.046875 34.011719 C 21.081862 33.688537 20.313166 32.911829 20.072266 31.849609 C 19.927738 31.213836 20.001995 30.588519 20.242188 30.021484 A 1.0001 1.0001 0 0 0 20.244141 29.242188 L 20.390625 29.535156 L 23.048828 20.984375 A 1.0001 1.0001 0 0 0 22.242188 19.697266 L 17.630859 19.011719 A 1.0001 1.0001 0 0 0 16.755859 19.314453 L 11.9375 24.441406 A 1.0001 1.0001 0 0 0 11.931641 24.445312 A 1.0001 1.0001 0 0 0 11.789062 24.597656 C 11.595595 24.854434 11.347559 25.00812 10.964844 25 C 10.626713 24.993 10.258125 24.760701 10.113281 24.46875 C 9.8819063 23.998343 10.006945 23.580139 10.306641 23.289062 A 1.0001 1.0001 0 0 0 10.40625 23.175781 L 15.839844 17.455078 L 15.685547 17.519531 A 1.0001 1.0001 0 0 0 16.013672 17.298828 C 16.149407 17.16152 16.306224 17.068296 16.496094 17.025391 C 16.556834 17.011731 16.636154 17.004972 16.753906 17.007812 A 1.0001 1.0001 0 0 0 17.138672 16.939453 z M 42.166016 18.951172 C 42.416177 18.99361 42.650434 19.134942 42.814453 19.365234 C 43.141883 19.824965 43.038709 20.431727 42.578125 20.759766 L 36.875 24.816406 C 36.543084 25.052255 36.133943 25.054415 35.804688 24.869141 A 1.0001 1.0001 0 0 0 35.326172 24.740234 L 35.5625 24.740234 L 30.580078 21.919922 L 30.830078 21.121094 A 1.0001 1.0001 0 0 0 30.84375 20.578125 C 30.881278 20.36231 30.917326 20.144148 30.939453 19.923828 L 35.431641 22.648438 A 1.0001 1.0001 0 0 0 36.53125 22.607422 L 41.419922 19.128906 C 41.649787 18.965191 41.915854 18.908734 42.166016 18.951172 z M 18.921875 34.070312 C 19.539303 34.932489 20.41739 35.573173 21.410156 35.90625 C 21.626723 35.979423 21.810431 36.002668 21.955078 36.007812 C 21.965206 36.008173 21.96683 36.007621 21.976562 36.007812 L 18.400391 40.707031 A 1.0001 1.0001 0 0 0 18.380859 40.734375 C 17.958623 41.330011 17.340304 41.744241 16.646484 41.914062 C 16.415211 41.97067 16.175063 42 15.931641 42 L 7.5 42 C 6.6591883 42 6 41.340812 6 40.5 C 6 40.394899 6.00963 40.291852 6.0292969 40.193359 C 6.1669651 39.503908 6.7642898 39 7.5 39 L 15.242188 39 A 1.0001 1.0001 0 0 0 15.341797 38.994141 A 1.0001 1.0001 0 0 0 16.085938 38.535156 L 18.921875 34.070312 z"/></svg>